<svg width="62" height="62" viewBox="0 0 62 62" fill="none" xmlns="http://www.w3.org/2000/svg">
<g id="mdi:brush">
<path id="Vector" d="M53.1366 11.8868L49.7308 8.48099C48.7904 7.48974 47.1383 7.48974 46.147 8.48099L23.3737 31.2543L30.3633 38.2439L53.1366 15.4706C54.1279 14.4793 54.1279 12.8272 53.1366 11.8868ZM18.2904 35.7022C16.2681 35.7022 14.3286 36.5056 12.8987 37.9355C11.4687 39.3655 10.6654 41.305 10.6654 43.3272C10.6654 46.6568 7.71703 48.4106 5.58203 48.4106C7.92036 51.5114 11.9362 53.4939 15.7487 53.4939C18.4451 53.4939 21.031 52.4228 22.9376 50.5162C24.8442 48.6095 25.9154 46.0236 25.9154 43.3272C25.9154 41.305 25.112 39.3655 23.6821 37.9355C22.2521 36.5056 20.3126 35.7022 18.2904 35.7022Z" fill="#2091F9"/>
</g>
</svg>
