<svg width="56" height="57" viewBox="0 0 56 57" fill="none" xmlns="http://www.w3.org/2000/svg">
<g id="mdi:draw">
<path id="Vector" d="M22.7486 48.7689C26.902 47.1356 25.992 42.6323 23.892 39.7856C21.8153 36.8689 18.9453 34.8623 16.052 32.9256C13.9876 31.6244 12.1443 30.0018 10.592 28.1189C9.93863 27.3489 8.60863 25.9256 9.96197 25.6456C11.3386 25.3656 13.7186 26.7189 14.932 27.2323C17.0553 28.1189 19.1553 29.1456 21.1153 30.3589L23.472 26.3923C19.832 23.9889 15.1653 21.8656 10.8253 21.2356C8.35197 20.8623 5.73863 21.3756 4.89863 24.0589C4.15197 26.3689 5.34197 28.7023 6.6953 30.5223C9.89197 34.7923 14.862 36.8456 18.572 40.5323C19.3653 41.3023 20.322 42.2123 20.7886 43.2856C21.2786 44.3123 21.162 44.3823 20.0653 44.3823C17.172 44.3823 13.5553 42.1189 11.1986 40.6256L8.84197 44.5923C12.412 46.7856 18.3853 50.2156 22.7486 48.7689ZM48.6253 12.3689C49.1386 11.8556 49.1386 11.0156 48.6253 10.5256L45.592 7.49227C45.3476 7.25673 45.0214 7.12512 44.682 7.12512C44.3425 7.12512 44.0164 7.25673 43.772 7.49227L41.392 9.87226L46.2453 14.7256L48.6253 12.3689ZM25.6653 25.5989V30.4523H30.5186L44.8686 16.1023L40.0153 11.2489L25.6653 25.5989Z" fill="#2091F9"/>
</g>
</svg>
