<svg width="390" height="348" viewBox="0 0 390 348" fill="none" xmlns="http://www.w3.org/2000/svg">
<g clip-path="url(#clip0_66_3941)">
<path d="M209.775 321.364C288.083 321.364 351.565 303.218 351.565 280.834C351.565 258.45 288.083 240.303 209.775 240.303C131.466 240.303 67.9844 258.45 67.9844 280.834C67.9844 303.218 131.466 321.364 209.775 321.364Z" fill="#F5F5F5"/>
<path d="M344.679 123.167C344.679 123.167 319.561 148.296 333.741 185.584C347.92 222.872 309.434 284.883 309.434 284.883C309.434 284.883 309.839 284.822 310.612 284.688C362.2 275.577 387.832 216.549 359.145 172.699C348.495 156.398 339.724 137.272 344.679 123.167Z" fill="#2091F9"/>
<path d="M344.679 123.167C344.679 123.167 330.5 153.97 344.679 179.099C358.858 204.228 347.109 274.75 309.434 284.883" stroke="#535461" stroke-width="2" stroke-miterlimit="10"/>
<path d="M389.41 224.805C389.41 224.805 360.748 220.237 358.135 245.937C355.522 271.638 303.039 275.196 303.039 275.196C303.039 275.196 303.379 275.431 304.023 275.853C347.371 304.321 388.81 293.986 382.567 256.183C380.23 242.132 380.416 228.015 389.41 224.805Z" fill="#2091F9"/>
<path opacity="0.2" d="M389.41 224.805C389.41 224.805 360.748 220.237 358.135 245.937C355.522 271.638 303.039 275.196 303.039 275.196C303.039 275.196 303.379 275.431 304.023 275.853C347.371 304.321 388.81 293.986 382.567 256.183C380.23 242.132 380.416 228.015 389.41 224.805Z" fill="#F5F5F5"/>
<path d="M389.41 224.805C389.41 224.805 367.161 229.693 368.988 249.933C370.815 270.174 335.935 294.428 303.023 275.188" stroke="#535461" stroke-width="2" stroke-miterlimit="10"/>
<path opacity="0.2" d="M61.835 26.3967C58.5697 26.2832 55.2235 26.3967 52.1608 27.5396C43.8276 30.6483 39.8777 40.8174 41.1619 49.6246C42.4462 58.4318 47.7289 66.0799 53.2101 73.0876C58.6913 80.0953 64.6303 87.0138 67.6362 95.3793C69.1352 99.558 69.836 104.239 68.3128 108.41C65.9631 114.842 58.8776 118.437 52.0757 119.183C45.2739 119.929 38.4436 118.473 31.6174 117.967C28.7533 117.764 25.8081 117.74 23.11 118.68C20.1486 119.706 17.6814 121.797 15.4128 123.977C6.56102 132.529 -0.524445 144.202 0.622032 156.458C1.9184 170.352 13.4804 181.336 26.1443 187.225C30.3373 189.179 34.7733 190.759 38.4639 193.548C48.1866 200.9 50.3702 214.676 49.402 226.839C48.4338 239.003 45.1361 251.178 46.9713 263.236C49.1306 277.259 58.6872 289.925 71.578 295.842C83.063 301.111 97.4365 300.783 107.633 293.329C112.604 289.682 116.364 284.652 119.633 279.436C124.567 271.566 128.571 263.15 131.563 254.355C132.985 250.177 134.322 245.682 137.64 242.776C139.666 240.989 142.291 239.987 144.888 239.209C152.715 236.867 160.959 236.222 168.858 234.139C176.758 232.056 184.707 228.173 189.001 221.23C195.077 211.377 192.242 198.776 192.27 187.185C192.319 160.775 208.114 137.13 213.944 111.393C215.848 102.979 216.557 93.6689 212.303 86.1667C209.41 81.0478 204.537 77.4 199.412 74.5629C188.15 68.305 175.348 65.5206 162.753 62.8091C145.248 59.0479 123.992 58.5615 110.425 46.3943C97.4041 34.7216 79.5912 26.3967 61.835 26.3967Z" fill="#2091F9"/>
<g opacity="0.5">
<path opacity="0.5" d="M125.333 128.618C125.332 122.253 124.336 115.926 122.38 109.869L117.518 94.7875C117.518 94.5362 117.518 94.289 117.518 94.0417C117.668 84.3753 110.137 79.5522 107.237 80.075C104.267 80.61 96.0271 76.4759 96.0271 76.4759V76.5894C95.4621 75.9387 94.9526 75.2419 94.5038 74.5061C95.9275 73.4688 97.1296 72.1571 98.0393 70.6483C98.9491 69.1395 99.5482 67.464 99.8015 65.7202C100.055 63.9764 99.957 62.1996 99.5141 60.4942C99.0711 58.7887 98.2919 57.1891 97.2222 55.7892C98.1128 55.1197 98.792 54.208 99.1789 53.1629C99.8514 51.2701 99.3369 49.1098 98.2431 47.4238C97.778 46.7199 97.2343 46.0713 96.6226 45.4905C95.696 44.5721 94.6841 43.7442 93.6004 43.0181C90.8983 41.1456 87.9288 39.5366 84.6879 38.9651C84.1271 38.8326 83.5432 38.8326 82.9824 38.9651C82.4956 39.1616 82.0323 39.4117 81.6009 39.7108C79.3809 40.9754 76.618 40.4282 74.0577 40.2945C71.4973 40.1607 68.386 40.8781 67.5758 43.2816C67.3246 44.0233 67.3408 44.8258 67.1707 45.5877C66.7656 47.4521 65.3274 48.8991 64.2174 50.4514C63.1074 52.0037 62.2769 54.0991 63.2006 55.7852C63.5165 56.3526 64.0108 56.8754 64.0108 57.5239C64.0108 57.99 63.7353 58.4075 63.6057 58.8533C63.3261 59.8666 63.8528 60.8798 64.663 61.6134C65.0122 61.99 65.4232 62.3039 65.8784 62.5416C67.1626 63.1982 68.6413 63.4008 69.9498 64.0088C70.6029 64.3157 71.2022 64.7263 71.7242 65.2247C72.3637 65.8944 72.8635 66.6848 73.1946 67.5497C73.5256 68.4146 73.6813 69.3369 73.6525 70.2626L73.924 70.291C73.924 70.372 73.924 70.449 73.924 70.5301C74.2075 70.5625 74.5073 70.5909 74.8031 70.6031C75.2285 71.2901 75.7153 71.9372 76.2574 72.5364C76.1656 72.8822 76.0616 73.2335 75.9455 73.5901C74.9935 74.2508 67.2071 79.4387 58.3513 78.1903C48.9 76.8569 43.4957 118.198 43.4957 118.198C43.1454 120.562 42.9748 122.949 42.9853 125.339C42.9448 131.419 44.2209 139.375 51.3307 138.204L55.1104 136.959V157.407C55.1104 157.407 55.6492 163.008 53.7614 166.729C51.8735 170.45 59.7044 169.128 59.7044 169.128C59.7044 169.128 60.0042 169.44 60.5552 169.971L60.381 170.462L60.6119 170.697C59.582 174.219 58.1932 177.627 56.4675 180.866L56.6904 180.979C56.5486 181.251 56.4675 181.385 56.4675 181.385C56.4675 181.385 59.3763 182.872 63.3788 184.789C66.5954 195.667 73.6363 220.861 71.3191 225.66L71.3839 225.798C71.8174 226.698 74.24 232.003 73.7498 236.863C73.3082 241.207 79.3201 260.95 81.5644 268.12L80.5031 268.334L84.2828 281.936L83.4725 290.739C83.4725 290.739 78.8826 303.008 89.683 300.609C100.483 298.209 97.5139 288.34 97.5139 288.34L97.7853 268.334C97.7853 268.334 96.7441 267.755 95.4599 267.199C94.5768 264.812 92.6525 259.17 92.6525 255.267C92.6525 250.201 89.1401 228.327 89.1401 228.327V228.282V228.197V228.173L89.1199 227.881V227.832C89.1199 227.561 89.0753 227.188 89.0429 226.734V226.71C88.6378 220.796 87.4224 200.705 88.3096 190.232C89.0898 189.7 89.9016 189.216 90.7403 188.781C93.3695 195.428 100.147 213.387 99.7136 220.922C99.1748 230.244 99.5799 222.924 99.7136 221.733C99.7541 221.364 99.7825 221.81 99.7947 222.811C99.7947 222.993 99.7947 223.196 99.7947 223.411C99.7947 223.625 99.7947 223.864 99.7947 224.112C99.7947 224.359 99.7947 224.626 99.7947 224.922C99.7947 225.063 99.7947 225.206 99.7947 225.352C99.7947 225.644 99.7947 225.949 99.7947 226.268C99.7947 226.427 99.7947 226.589 99.7947 226.754C99.7947 227.565 99.7947 228.465 99.7663 229.401C99.7663 229.587 99.7663 229.776 99.7663 229.968C99.7663 230.54 99.7663 231.123 99.7379 231.715C99.7379 232.526 99.7055 233.312 99.6893 234.127C99.6488 235.951 99.5961 237.795 99.5313 239.521C99.5313 239.713 99.5246 239.904 99.5111 240.093C99.4976 240.471 99.4827 240.841 99.4665 241.203C99.4503 241.565 99.4341 241.919 99.4179 242.265C99.4017 242.608 99.3841 242.942 99.3652 243.266C99.345 243.647 99.3207 244.012 99.3004 244.361L97.8339 244.15L97.5219 247.522C97.0306 252.876 97.7221 258.272 99.5475 263.329C100.05 264.715 100.439 265.862 100.524 266.271C100.795 267.605 100.524 277.215 100.524 277.215C100.524 277.215 102.144 289.751 109.708 287.347C113.111 286.265 114.764 282.974 115.554 279.675C116.43 275.85 116.103 271.848 114.618 268.217C113.544 265.517 112.446 261.732 113.22 258.806C114.569 253.739 114.569 246.537 114.569 246.537L113.735 246.42C113.943 246.024 114.131 245.618 114.298 245.204C114.298 245.204 114.026 226.799 116.457 224.399C117.794 223.078 117.672 219.905 117.267 217.311C116.689 213.557 116.553 209.748 116.862 205.962C117.028 204.013 117.267 202.314 117.547 201.711C118.26 200.3 118.973 186.082 115.817 179.241L116.465 179.038L116.364 178.535L116.465 178.503C116.941 179.774 117.482 181.02 118.086 182.236C118.245 182.361 118.428 182.452 118.624 182.503C127.371 180.967 127.723 172.8 127.237 168.342C127.606 168.52 127.808 168.634 127.808 168.634L128.619 156.88C129.449 155.003 129.757 152.608 129.737 150.018C129.773 140.761 125.333 128.618 125.333 128.618ZM115.691 162.027C115.092 156.908 114.261 152.089 114.261 152.089L110.21 137.685V132.44L116.635 156.434L115.691 162.027Z" fill="url(#paint0_linear_66_3941)"/>
</g>
<path d="M97.4782 240.709L97.1785 244.004C96.7054 249.24 97.3758 254.515 99.1433 259.466C99.6253 260.824 100.002 261.943 100.083 262.344C100.342 263.649 100.083 273.032 100.083 273.032C100.083 273.032 101.647 285.284 108.943 282.937C112.224 281.883 113.804 278.661 114.582 275.439C115.425 271.702 115.109 267.797 113.675 264.245C112.638 261.606 111.576 257.898 112.326 255.048C113.63 250.096 113.63 243.059 113.63 243.059L97.4782 240.709Z" fill="#5A5773"/>
<path d="M89.6602 184.145C89.6602 184.145 99.8205 208.909 99.2979 218.028C98.7753 227.147 99.1682 219.982 99.2979 218.81C99.5288 216.723 99.2979 241.507 98.516 244.345C98.516 244.345 109.199 252.163 113.368 241.738C113.368 241.738 113.108 223.755 115.45 221.408C116.738 220.12 116.613 217.015 116.232 214.482C115.67 210.817 115.534 207.1 115.827 203.405C115.985 201.5 116.203 199.822 116.487 199.25C117.269 197.686 118.051 179.962 113.359 175.009L89.6602 184.145Z" fill="#605D82"/>
<path opacity="0.1" d="M99.8203 244.357C100.602 241.491 100.833 216.723 100.602 218.823C100.473 219.994 100.08 227.164 100.602 218.04C101.125 208.917 90.9645 184.157 90.9645 184.157L113.696 175.411C113.59 175.277 113.481 175.151 113.371 175.034L89.6641 184.157C89.6641 184.157 99.8244 208.921 99.3018 218.04C98.7792 227.16 99.1721 219.994 99.3018 218.823C99.5327 216.735 99.3018 241.52 98.5199 244.357C98.5199 244.357 102.786 247.478 106.979 247.145C103.248 246.866 99.8203 244.357 99.8203 244.357Z" fill="black"/>
<path d="M80.8008 264.427L84.4468 277.721L83.665 286.322C83.665 286.322 79.237 298.311 89.6566 295.964C100.076 293.617 97.212 283.975 97.212 283.975L97.4713 264.427C97.4713 264.427 93.3026 262.08 91.4796 262.344C89.6566 262.607 80.8008 264.427 80.8008 264.427Z" fill="#5A5773"/>
<path d="M62.8281 177.891C62.8281 177.891 74.8114 216.727 71.9473 222.722C71.9473 222.722 74.8114 228.457 74.2929 233.665C73.7743 238.873 82.6302 266.766 82.6302 266.766L95.6587 264.419C95.6587 264.419 92.5312 256.601 92.5312 251.648C92.5312 246.695 89.1444 225.303 89.1444 225.303C89.1444 225.303 86.2803 186.204 89.667 182.033L62.8281 177.891Z" fill="#605D82"/>
<g opacity="0.1">
<path opacity="0.1" d="M88.6542 185.211C86.4949 194.063 88.8811 226.637 88.8811 226.637C88.8811 226.637 92.2678 248.009 92.2678 252.982C92.2678 256.763 94.0868 262.21 94.9497 264.577L95.6546 264.452C95.6546 264.452 92.5271 256.634 92.5271 251.681C92.5271 246.728 89.1403 225.336 89.1403 225.336C89.1403 225.336 86.9608 195.566 88.6542 185.211Z" fill="black"/>
<path opacity="0.1" d="M71.9453 222.722L72.0101 222.856C72.0304 222.722 72.0507 222.58 72.0628 222.45C72.0283 222.543 71.9891 222.633 71.9453 222.722Z" fill="black"/>
<path opacity="0.1" d="M89.0756 183.314C89.1939 182.864 89.393 182.44 89.663 182.062L62.8281 177.891C62.8281 177.891 62.9861 178.398 63.2575 179.302L89.0756 183.314Z" fill="black"/>
</g>
<path d="M125.351 163.815C125.351 163.815 129.26 178.406 117.536 180.497C117.346 180.447 117.168 180.359 117.014 180.238C117.014 180.238 110.24 166.944 115.45 161.731L125.351 163.815Z" fill="#FAC3CA"/>
<path d="M77.4158 66.8621C77.4158 66.8621 78.1977 77.8053 69.6011 83.0215C61.0046 88.2378 87.8313 102.569 87.8313 102.569L101.901 80.152C101.901 80.152 95.9133 80.9261 92.2673 70.5098L77.4158 66.8621Z" fill="#FAC3CA"/>
<path opacity="0.1" d="M71.6826 83.7957C71.6826 83.7957 84.9704 111.425 96.9538 85.3601L115.451 177.105C115.451 177.105 86.7894 185.969 86.5342 190.139C86.279 194.31 57.6211 179.455 57.6211 179.455C57.6211 179.455 63.872 167.985 62.3123 160.949C60.7526 153.913 71.6826 83.7957 71.6826 83.7957Z" fill="black"/>
<path d="M71.6826 83.2729C71.6826 83.2729 84.9704 110.902 96.9538 84.8374L115.451 176.586C115.451 176.586 86.7894 185.45 86.5342 189.62C86.279 193.791 57.6211 178.933 57.6211 178.933C57.6211 178.933 63.872 167.463 62.3123 160.426C60.7526 153.39 71.6826 83.2729 71.6826 83.2729Z" fill="#E1E7EF"/>
<path d="M84.7106 271.727C84.7106 271.727 81.3238 264.168 89.1385 264.168C96.9532 264.168 95.6528 270.945 95.6528 270.945L84.7106 271.727Z" fill="#5A5773"/>
<path d="M102.426 252.175C102.426 252.175 99.2989 244.093 107.118 243.834C114.936 243.574 111.027 251.129 111.027 251.129L102.426 252.175Z" fill="#5A5773"/>
<path opacity="0.1" d="M95.7812 77.4001C95.7812 77.4001 103.726 81.4532 106.594 80.9182C109.462 80.3832 117.013 85.3481 116.495 95.2538L121.202 110.031C123.085 115.956 124.042 122.137 124.038 128.355C124.038 128.355 130.812 147.12 127.166 155.462L126.384 166.932C126.384 166.932 120.392 163.543 114.137 164.585L115.713 155.218L108.664 128.626L96.9399 100.215L95.7812 77.4001Z" fill="black"/>
<path d="M95.7812 76.8853C95.7812 76.8853 103.726 80.9383 106.594 80.4033C109.462 79.8683 117.013 84.8333 116.495 94.7389L121.202 109.516C123.085 115.442 124.042 121.622 124.038 127.84C124.038 127.84 130.812 146.606 127.166 154.947L126.384 166.417C126.384 166.417 120.392 163.028 114.137 164.07L115.701 154.687L108.664 128.103L96.952 99.6917L95.7812 76.8853Z" fill="#67647E"/>
<path opacity="0.1" d="M108.939 108.556V138.009L112.849 152.085C112.849 152.085 115.454 167.462 114.672 172.156C113.89 176.849 101.384 177.891 97.9972 173.98C94.6105 170.069 96.4335 136.692 96.4335 136.692L95.7812 87.8325L96.3038 86.2681L108.939 108.556Z" fill="black"/>
<path d="M109.475 107.255V136.708L113.384 150.784C113.384 150.784 115.989 166.161 115.207 170.855C114.425 175.548 101.919 176.59 98.5324 172.679C95.1456 168.767 96.9686 135.391 96.9686 135.391L96.3164 86.5193L109.475 107.255Z" fill="#67647E"/>
<path opacity="0.1" d="M56.9648 131.755L65.3021 157.695L61.3928 168.772C61.3928 168.772 79.8903 188.319 91.6144 178.937C91.6144 178.937 92.9188 139.055 90.3099 129.672C87.701 120.289 75.1991 88.7365 75.1991 88.7365L72.6104 80.4075L58.8041 88.2258L56.9648 131.755Z" fill="black"/>
<path d="M56.312 130.45V155.984C56.312 155.984 56.8346 161.46 55.0075 165.108C53.1805 168.755 60.7399 167.454 60.7399 167.454C60.7399 167.454 79.2375 187.002 90.9615 177.619C90.9615 177.619 92.266 137.737 89.6571 128.355C87.0481 118.972 74.5462 87.419 74.5462 87.419L71.9414 79.0779L58.135 86.8962L56.312 130.45Z" fill="#67647E"/>
<path opacity="0.1" d="M76.5047 74.5427C76.5047 74.5427 68.5604 80.4075 59.4412 79.1024C50.3221 77.7973 45.1123 118.202 45.1123 118.202C45.1123 118.202 41.7255 139.055 52.6677 137.231L76.8976 129.149C76.8976 129.149 71.6879 123.674 72.4697 116.638L60.7417 121.327L61.2683 98.9136L76.5047 74.5427Z" fill="black"/>
<path opacity="0.1" d="M45.6279 117.679C45.6279 117.679 42.2412 138.532 53.1833 136.708L77.4133 128.626C77.4133 128.626 72.2035 123.155 72.9854 116.115L61.2654 120.808L45.6279 117.679Z" fill="black"/>
<path d="M72.4102 118.863C72.4102 118.863 80.5408 108.167 86.5284 113.302C92.516 118.437 74.5573 127.848 74.5573 127.848L72.4102 118.863Z" fill="#FAC3CA"/>
<path d="M76.5047 74.0198C76.5047 74.0198 68.5604 79.8845 59.4412 78.5794C50.3221 77.2744 45.1123 117.679 45.1123 117.679C45.1123 117.679 41.7255 138.532 52.6677 136.708L76.8976 128.626C76.8976 128.626 71.6879 123.151 72.4697 116.115L60.7417 120.808L61.2683 98.3907L74.5561 87.4475L76.5047 74.0198Z" fill="#67647E"/>
<path opacity="0.1" d="M92.5241 71.0205L77.6726 67.3728C77.6726 67.3728 78.4464 68.2483 77.543 71.6731C79.9331 74.417 82.8702 78.0606 86.7918 78.0606C89.5981 78.0659 92.3304 77.1599 94.5781 75.4789C93.7393 74.0688 93.0509 72.5745 92.5241 71.0205Z" fill="black"/>
<path d="M86.5363 77.542C93.7318 77.542 99.5648 71.7062 99.5648 64.5075C99.5648 57.3087 93.7318 51.4729 86.5363 51.4729C79.3409 51.4729 73.5078 57.3087 73.5078 64.5075C73.5078 71.7062 79.3409 77.542 86.5363 77.542Z" fill="#FAC3CA"/>
<path opacity="0.1" d="M91.4719 58.8494C94.4941 58.3346 97.816 56.9931 98.8288 54.0992C99.477 52.247 98.9828 50.1394 97.9254 48.4898C96.8681 46.8402 95.3124 45.5716 93.7081 44.4368C91.1033 42.6048 88.231 41.0322 85.0954 40.481C84.5548 40.3517 83.9913 40.3517 83.4506 40.481C82.9805 40.6736 82.5334 40.9183 82.1178 41.2106C79.9747 42.4467 77.3091 41.9117 74.8257 41.782C72.3424 41.6523 69.3648 42.3535 68.5829 44.7002C68.3398 45.4257 68.356 46.208 68.1778 46.9537C67.7727 48.7776 66.3993 50.1961 65.342 51.716C64.2846 53.2359 63.4703 55.2908 64.3616 56.9282C64.6654 57.4835 65.1718 57.9942 65.1718 58.6264C65.0936 59.0758 64.9575 59.5132 64.7667 59.9275C64.3981 61.2731 65.4716 62.6308 66.7113 63.2712C67.9509 63.9116 69.3769 64.1102 70.6409 64.706C71.8239 65.29 72.8144 66.2018 73.4945 67.3327C74.1746 68.4636 74.5157 69.7662 74.4773 71.0855C75.6278 71.2192 76.9688 71.2881 77.7466 70.4289C78.095 70.0438 78.2651 69.5291 78.5811 69.1198C78.9863 68.5848 79.6182 68.2686 80.1368 67.839C82.8632 65.5977 80.9268 62.5011 82.4702 60.0855C83.2805 58.8413 84.5687 59.2222 85.8732 59.2425C87.7476 59.2864 89.622 59.1548 91.4719 58.8494Z" fill="black"/>
<path d="M91.2141 58.5898C94.2363 58.0751 97.5582 56.7336 98.571 53.8397C99.2192 51.9875 98.725 49.8799 97.6676 48.2303C96.6103 46.5807 95.0546 45.3121 93.4504 44.1773C90.8455 42.3453 87.9732 40.7727 84.8376 40.2215C84.297 40.0922 83.7335 40.0922 83.1928 40.2215C82.7227 40.414 82.2756 40.6587 81.86 40.951C79.7169 42.1872 77.0513 41.6522 74.5679 41.5225C72.0845 41.3928 69.107 42.094 68.3251 44.4407C68.082 45.1662 68.0982 45.9484 67.92 46.6942C67.5149 48.5181 66.1415 49.9366 65.0842 51.4565C64.0268 52.9764 63.2125 55.0313 64.1038 56.6687C64.4076 57.224 64.914 57.7347 64.914 58.3669C64.8358 58.8163 64.6997 59.2537 64.5089 59.668C64.1402 61.0136 65.2138 62.3713 66.4534 63.0117C67.6931 63.6521 69.1191 63.8507 70.3831 64.4465C71.5709 65.0299 72.5656 65.9434 73.2482 67.0777C73.9307 68.2119 74.2721 69.5189 74.2317 70.8422C75.3822 70.9759 76.7231 71.0448 77.501 70.1856C77.8494 69.8005 78.0195 69.2858 78.3355 68.8764C78.7406 68.3414 79.3726 68.0253 79.8911 67.5957C82.6176 65.3544 80.6811 62.2578 82.2246 59.8422C83.0348 58.5979 84.3231 58.9789 85.6276 58.9992C87.4984 59.037 89.3687 58.8999 91.2141 58.5898Z" fill="#4A4347"/>
<path opacity="0.1" d="M106.984 102.432C106.984 102.432 109.849 117.29 108.548 123.025C107.754 126.361 107.871 129.85 108.888 133.125" fill="black"/>
<path opacity="0.1" d="M60.684 108.685C60.684 108.685 59.4362 118.591 61.5144 120.674L60.684 108.685Z" fill="black"/>
<path d="M133.432 230.759C133.593 230.759 133.748 230.695 133.862 230.581C133.976 230.467 134.04 230.312 134.04 230.151C134.04 229.989 133.976 229.835 133.862 229.721C133.748 229.607 133.593 229.543 133.432 229.543C133.271 229.543 133.116 229.607 133.002 229.721C132.888 229.835 132.824 229.989 132.824 230.151C132.824 230.312 132.888 230.467 133.002 230.581C133.116 230.695 133.271 230.759 133.432 230.759Z" fill="black"/>
<g opacity="0.5">
<path opacity="0.5" d="M320.542 159.932V159.596L210.01 74.5629C209.94 74.5113 209.856 74.4834 209.769 74.4834C209.682 74.4834 209.598 74.5113 209.528 74.5629L98.9922 159.596V291.4H99.2029V291.611H320.757V159.806L320.542 159.932Z" fill="url(#paint1_linear_66_3941)"/>
</g>
<path d="M316.725 287.724H102.824V160.459L209.775 78.1824L316.725 160.459V287.724Z" fill="white"/>
<path d="M309.026 280.181H110.52V162.076L209.773 85.7209L309.026 162.076V280.181Z" fill="#E0E0E0"/>
<path d="M243.448 83.9562L122.359 115.715L162.733 269.793L283.822 238.034L243.448 83.9562Z" fill="#2091F9"/>
<path d="M272.974 107.364H147.793V266.648H272.974V107.364Z" fill="#F5F5F5"/>
<path opacity="0.05" d="M103.836 160.662L210.786 224.294L103.836 287.927V160.662Z" fill="black"/>
<path d="M103.027 160.662L209.978 224.294L103.027 287.927V160.662Z" fill="white"/>
<path opacity="0.05" d="M316.118 160.662L209.168 224.294L316.118 287.927V160.662Z" fill="black"/>
<path d="M316.927 160.662L209.977 224.294L316.927 287.927V160.662Z" fill="white"/>
<path opacity="0.05" d="M103.027 285.9L209.978 202.408L316.928 285.9H103.027Z" fill="black"/>
<path d="M103.027 287.927L209.978 204.434L316.928 287.927H103.027Z" fill="white"/>
<path d="M124.763 297.593C124.763 297.593 119.391 279.355 125.772 265.923C128.483 260.308 129.3 253.965 128.101 247.846C127.51 244.946 126.654 242.107 125.545 239.363" stroke="#535461" stroke-width="2" stroke-miterlimit="10"/>
<path d="M129.509 230.876C129.509 233.114 125.457 239.594 125.457 239.594C125.457 239.594 121.406 233.109 121.406 230.876C121.406 229.801 121.833 228.77 122.593 228.01C123.353 227.25 124.383 226.823 125.457 226.823C126.532 226.823 127.562 227.25 128.322 228.01C129.082 228.77 129.509 229.801 129.509 230.876Z" fill="#6C63FF"/>
<path d="M136.213 243.262C134.997 245.139 128.078 248.381 128.078 248.381C128.078 248.381 128.204 240.737 129.419 238.861C130.025 238.012 130.935 237.43 131.959 237.235C132.983 237.04 134.043 237.247 134.918 237.814C135.793 238.381 136.416 239.264 136.657 240.279C136.898 241.293 136.739 242.362 136.213 243.262Z" fill="#6C63FF"/>
<path d="M135.906 264.423C133.909 265.428 126.301 264.735 126.301 264.735C126.301 264.735 130.267 258.202 132.26 257.197C132.737 256.93 133.263 256.762 133.807 256.704C134.35 256.645 134.9 256.698 135.423 256.858C135.945 257.018 136.43 257.282 136.848 257.634C137.266 257.987 137.609 258.42 137.855 258.908C138.101 259.396 138.246 259.929 138.281 260.475C138.316 261.021 138.24 261.568 138.058 262.084C137.876 262.599 137.591 263.073 137.221 263.476C136.852 263.878 136.404 264.202 135.906 264.427V264.423Z" fill="#6C63FF"/>
<path d="M132.083 280.388C130.284 281.718 122.668 282.317 122.668 282.317C122.668 282.317 125.471 275.208 127.27 273.879C128.136 273.301 129.19 273.079 130.215 273.258C131.24 273.437 132.157 274.003 132.775 274.84C133.394 275.677 133.667 276.72 133.538 277.753C133.409 278.786 132.888 279.729 132.083 280.388Z" fill="#6C63FF"/>
<path d="M119.568 248.811C121.188 250.367 128.638 251.984 128.638 251.984C128.638 251.984 126.811 244.563 125.207 243.007C124.426 242.317 123.41 241.954 122.37 241.994C121.329 242.033 120.344 242.472 119.618 243.22C118.892 243.967 118.482 244.965 118.473 246.007C118.463 247.049 118.855 248.055 119.568 248.815V248.811Z" fill="#6C63FF"/>
<path d="M115.331 267.54C117.328 268.545 124.936 267.852 124.936 267.852C124.936 267.852 120.97 261.319 118.977 260.313C118.025 259.883 116.944 259.837 115.959 260.185C114.975 260.533 114.162 261.248 113.692 262.181C113.222 263.114 113.129 264.193 113.435 265.192C113.74 266.191 114.42 267.034 115.331 267.544V267.54Z" fill="#6C63FF"/>
<path d="M113.709 286.305C115.508 287.635 123.124 288.235 123.124 288.235C123.124 288.235 120.321 281.126 118.522 279.796C118.097 279.449 117.606 279.191 117.079 279.039C116.552 278.887 116 278.844 115.455 278.912C114.911 278.98 114.386 279.158 113.913 279.435C113.439 279.712 113.027 280.082 112.7 280.524C112.374 280.965 112.141 281.468 112.015 282.002C111.889 282.536 111.872 283.09 111.967 283.631C112.061 284.171 112.264 284.687 112.563 285.147C112.863 285.607 113.253 286.001 113.709 286.305Z" fill="#6C63FF"/>
<path opacity="0.5" d="M205.32 114.66H155.086V118.713H205.32V114.66Z" fill="#6C63FF"/>
<path opacity="0.5" d="M263.657 130.872H155.086V134.925H263.657V130.872Z" fill="#6C63FF"/>
<path opacity="0.5" d="M263.657 141.41H155.086V145.463H263.657V141.41Z" fill="#6C63FF"/>
<path opacity="0.4" d="M263.657 151.948H155.086V156.001H263.657V151.948Z" fill="#6C63FF"/>
<path opacity="0.4" d="M263.657 162.485H155.086V166.538H263.657V162.485Z" fill="#6C63FF"/>
<path opacity="0.3" d="M217.069 173.023H155.086V177.076H217.069V173.023Z" fill="#6C63FF"/>
<path opacity="0.3" d="M239.755 183.561H155.086V187.614H239.755V183.561Z" fill="#6C63FF"/>
</g>
<defs>
<linearGradient id="paint0_linear_66_3941" x1="42.9893" y1="169.915" x2="129.692" y2="169.915" gradientUnits="userSpaceOnUse">
<stop stop-color="#808080" stop-opacity="0.25"/>
<stop offset="0.54" stop-color="#808080" stop-opacity="0.12"/>
<stop offset="1" stop-color="#808080" stop-opacity="0.1"/>
</linearGradient>
<linearGradient id="paint1_linear_66_3941" x1="141325" y1="160868" x2="141325" y2="44542.2" gradientUnits="userSpaceOnUse">
<stop stop-color="#808080" stop-opacity="0.25"/>
<stop offset="0.54" stop-color="#808080" stop-opacity="0.12"/>
<stop offset="1" stop-color="#808080" stop-opacity="0.1"/>
</linearGradient>
<clipPath id="clip0_66_3941">
<rect width="389" height="295" fill="white" transform="translate(0.5 26.3643)"/>
</clipPath>
</defs>
</svg>
